<svg xmlns="http://www.w3.org/2000/svg" viewBox="0 0 100 100">
  <circle cx="50" cy="50" r="48" fill="#3498db"/>
  <path d="M50 2C23.5 2 2 23.5 2 50s21.5 48 48 48 48-21.5 48-48S76.5 2 50 2zm0 90c-23.2 0-42-18.8-42-42S26.8 8 50 8s42 18.8 42 42-18.8 42-42 42z" fill="#fff"/>
  <path d="M50 8c-9.5 0-18.2 3.8-24.5 10.1C19.2 24.5 15.4 33.2 15.4 42.7c0 14.6 9.1 27.1 21.9 31.9 1.4.5 2.7 1 4.1 1.4V8.1c-2.8-.1-5.6-.1-8.4-.1z" fill="#fff" opacity=".3"/>
  <path d="M50 8v84c19.3 0 35-15.7 35-35V43c0-19.3-15.7-35-35-35z" fill="#fff" opacity=".1"/>
</svg>
